<mxfile host="www.draw.io" modified="2019-12-09T07:13:31.860Z" agent="Mozilla/5.0 (Windows NT 10.0; Win64; x64) AppleWebKit/537.36 (KHTML, like Gecko) Chrome/78.0.3904.108 Safari/537.36" etag="y7M5hQF42ASxpiaJAjwN" version="12.3.8" type="github" pages="1">
  <diagram id="oCsdgTol-XCLJZPFT3Ee" name="Page-1">
    <mxGraphModel dx="716" dy="378" grid="1" gridSize="10" guides="1" tooltips="1" connect="1" arrows="1" fold="1" page="1" pageScale="1" pageWidth="827" pageHeight="1169" math="0" shadow="0">
      <root>
        <mxCell id="0"/>
        <mxCell id="1" parent="0"/>
        <mxCell id="vgybutC9ZZM_P8MYtKKd-1" value="Athlete" style="shape=umlActor;verticalLabelPosition=bottom;labelBackgroundColor=#ffffff;verticalAlign=top;html=1;" parent="1" vertex="1">
          <mxGeometry x="160" y="40" width="30" height="60" as="geometry"/>
        </mxCell>
        <mxCell id="vgybutC9ZZM_P8MYtKKd-6" value="" style="html=1;points=[];perimeter=orthogonalPerimeter;" parent="1" vertex="1">
          <mxGeometry x="590" y="220" width="10" height="70" as="geometry"/>
        </mxCell>
        <mxCell id="vgybutC9ZZM_P8MYtKKd-10" value="click on profile button" style="text;html=1;align=center;verticalAlign=middle;resizable=0;points=[];;autosize=1;" parent="1" vertex="1">
          <mxGeometry x="230" y="140" width="130" height="20" as="geometry"/>
        </mxCell>
        <mxCell id="vgybutC9ZZM_P8MYtKKd-11" value="" style="endArrow=open;endFill=1;endSize=12;html=1;" parent="1" edge="1">
          <mxGeometry width="160" relative="1" as="geometry">
            <mxPoint x="185" y="169" as="sourcePoint"/>
            <mxPoint x="388" y="169" as="targetPoint"/>
            <Array as="points">
              <mxPoint x="330" y="168"/>
            </Array>
          </mxGeometry>
        </mxCell>
        <mxCell id="vgybutC9ZZM_P8MYtKKd-12" value="" style="endArrow=block;dashed=1;endFill=0;endSize=12;html=1;entryX=1.28;entryY=0.865;entryDx=0;entryDy=0;entryPerimeter=0;" parent="1" edge="1">
          <mxGeometry width="160" relative="1" as="geometry">
            <mxPoint x="390" y="323.5" as="sourcePoint"/>
            <mxPoint x="182.79999999999995" y="323.5" as="targetPoint"/>
            <Array as="points"/>
          </mxGeometry>
        </mxCell>
        <mxCell id="vgybutC9ZZM_P8MYtKKd-13" value="show profile information&lt;br&gt;" style="text;html=1;align=center;verticalAlign=middle;resizable=0;points=[];;autosize=1;" parent="1" vertex="1">
          <mxGeometry x="220" y="300" width="140" height="20" as="geometry"/>
        </mxCell>
        <mxCell id="vgybutC9ZZM_P8MYtKKd-15" value="" style="html=1;points=[];perimeter=orthogonalPerimeter;" parent="1" vertex="1">
          <mxGeometry x="391" y="370" width="10" height="140" as="geometry"/>
        </mxCell>
        <mxCell id="vgybutC9ZZM_P8MYtKKd-16" value="" style="endArrow=open;endFill=1;endSize=12;html=1;" parent="1" edge="1">
          <mxGeometry width="160" relative="1" as="geometry">
            <mxPoint x="180" y="378" as="sourcePoint"/>
            <mxPoint x="390" y="378" as="targetPoint"/>
          </mxGeometry>
        </mxCell>
        <mxCell id="vgybutC9ZZM_P8MYtKKd-19" value="" style="endArrow=block;dashed=1;endFill=0;endSize=12;html=1;entryX=1.2;entryY=0.876;entryDx=0;entryDy=0;entryPerimeter=0;" parent="1" edge="1">
          <mxGeometry width="160" relative="1" as="geometry">
            <mxPoint x="380" y="506" as="sourcePoint"/>
            <mxPoint x="190" y="505.65999999999997" as="targetPoint"/>
            <Array as="points">
              <mxPoint x="288" y="505.5"/>
            </Array>
          </mxGeometry>
        </mxCell>
        <mxCell id="vgybutC9ZZM_P8MYtKKd-20" value="" style="html=1;points=[];perimeter=orthogonalPerimeter;" parent="1" vertex="1">
          <mxGeometry x="391" y="170" width="10" height="160" as="geometry"/>
        </mxCell>
        <mxCell id="vgybutC9ZZM_P8MYtKKd-29" value="" style="endArrow=open;endFill=1;endSize=12;html=1;exitX=1.26;exitY=0.313;exitDx=0;exitDy=0;exitPerimeter=0;" parent="1" edge="1" source="vgybutC9ZZM_P8MYtKKd-20">
          <mxGeometry width="160" relative="1" as="geometry">
            <mxPoint x="400" y="170" as="sourcePoint"/>
            <mxPoint x="586" y="220" as="targetPoint"/>
          </mxGeometry>
        </mxCell>
        <mxCell id="vgybutC9ZZM_P8MYtKKd-30" value="SeeOwnProfile()" style="text;html=1;align=center;verticalAlign=middle;resizable=0;points=[];;autosize=1;" parent="1" vertex="1">
          <mxGeometry x="446" y="170" width="100" height="20" as="geometry"/>
        </mxCell>
        <mxCell id="vgybutC9ZZM_P8MYtKKd-31" value="" style="endArrow=block;dashed=1;endFill=0;endSize=12;html=1;" parent="1" edge="1">
          <mxGeometry width="160" relative="1" as="geometry">
            <mxPoint x="584" y="290" as="sourcePoint"/>
            <mxPoint x="403" y="290" as="targetPoint"/>
            <Array as="points">
              <mxPoint x="530" y="290"/>
            </Array>
          </mxGeometry>
        </mxCell>
        <mxCell id="vgybutC9ZZM_P8MYtKKd-32" value="return profile information" style="text;html=1;align=center;verticalAlign=middle;resizable=0;points=[];;autosize=1;" parent="1" vertex="1">
          <mxGeometry x="413" y="260" width="150" height="20" as="geometry"/>
        </mxCell>
        <mxCell id="vgybutC9ZZM_P8MYtKKd-33" value="Edit Information" style="text;html=1;align=center;verticalAlign=middle;resizable=0;points=[];;autosize=1;" parent="1" vertex="1">
          <mxGeometry x="230" y="360" width="100" height="20" as="geometry"/>
        </mxCell>
        <mxCell id="vgybutC9ZZM_P8MYtKKd-37" value="Show New Profile Info" style="text;html=1;align=center;verticalAlign=middle;resizable=0;points=[];;autosize=1;" parent="1" vertex="1">
          <mxGeometry x="210" y="486" width="130" height="20" as="geometry"/>
        </mxCell>
        <mxCell id="vgybutC9ZZM_P8MYtKKd-78" value="Sequence Diagram of Athlete Edit profile" style="text;html=1;strokeColor=none;fillColor=none;align=center;verticalAlign=middle;whiteSpace=wrap;rounded=0;" parent="1" vertex="1">
          <mxGeometry x="236" y="20" width="330" height="20" as="geometry"/>
        </mxCell>
        <mxCell id="vgybutC9ZZM_P8MYtKKd-86" value="" style="endArrow=none;dashed=1;html=1;" parent="1" edge="1" source="lP66GtSUZVC1we5ggvun-5">
          <mxGeometry width="50" height="50" relative="1" as="geometry">
            <mxPoint x="180" y="520" as="sourcePoint"/>
            <mxPoint x="180" y="130" as="targetPoint"/>
          </mxGeometry>
        </mxCell>
        <mxCell id="veqq3YdpMVkVWAeEO1rp-2" value="enter information data" style="endArrow=block;endFill=1;html=1;edgeStyle=orthogonalEdgeStyle;align=center;verticalAlign=top;fontSize=10;" parent="1" edge="1">
          <mxGeometry x="-0.0184" y="-13" relative="1" as="geometry">
            <mxPoint x="180" y="400" as="sourcePoint"/>
            <mxPoint x="387" y="397" as="targetPoint"/>
            <Array as="points">
              <mxPoint x="180" y="397"/>
            </Array>
            <mxPoint as="offset"/>
          </mxGeometry>
        </mxCell>
        <mxCell id="veqq3YdpMVkVWAeEO1rp-4" value="" style="html=1;points=[];perimeter=orthogonalPerimeter;" parent="1" vertex="1">
          <mxGeometry x="590" y="370" width="10" height="140" as="geometry"/>
        </mxCell>
        <mxCell id="veqq3YdpMVkVWAeEO1rp-10" value="" style="endArrow=block;dashed=1;endFill=0;endSize=12;html=1;fontSize=10;entryX=1.2;entryY=0.871;entryDx=0;entryDy=0;entryPerimeter=0;" parent="1" target="vgybutC9ZZM_P8MYtKKd-15" edge="1">
          <mxGeometry width="160" relative="1" as="geometry">
            <mxPoint x="595" y="490" as="sourcePoint"/>
            <mxPoint x="475" y="490" as="targetPoint"/>
          </mxGeometry>
        </mxCell>
        <mxCell id="veqq3YdpMVkVWAeEO1rp-11" value="return status&#xa;" style="text;strokeColor=none;fillColor=none;align=left;verticalAlign=top;spacingLeft=4;spacingRight=4;overflow=hidden;rotatable=0;points=[[0,0.5],[1,0.5]];portConstraint=eastwest;fontSize=10;" parent="1" vertex="1">
          <mxGeometry x="456" y="470" width="100" height="26" as="geometry"/>
        </mxCell>
        <mxCell id="veqq3YdpMVkVWAeEO1rp-12" value="&amp;lt;&amp;lt;SYSTEM&amp;gt;&amp;gt;" style="shape=umlLifeline;perimeter=lifelinePerimeter;whiteSpace=wrap;html=1;container=1;collapsible=0;recursiveResize=0;outlineConnect=0;fontSize=10;" parent="1" vertex="1">
          <mxGeometry x="346" y="60" width="100" height="540" as="geometry"/>
        </mxCell>
        <mxCell id="lP66GtSUZVC1we5ggvun-4" value="" style="endArrow=classic;html=1;" edge="1" parent="veqq3YdpMVkVWAeEO1rp-12">
          <mxGeometry width="50" height="50" relative="1" as="geometry">
            <mxPoint x="54" y="360" as="sourcePoint"/>
            <mxPoint x="244" y="360" as="targetPoint"/>
          </mxGeometry>
        </mxCell>
        <mxCell id="veqq3YdpMVkVWAeEO1rp-13" value="ATHLETE" style="shape=umlLifeline;perimeter=lifelinePerimeter;whiteSpace=wrap;html=1;container=1;collapsible=0;recursiveResize=0;outlineConnect=0;fontSize=10;" parent="1" vertex="1">
          <mxGeometry x="550" y="55" width="100" height="545" as="geometry"/>
        </mxCell>
        <mxCell id="lP66GtSUZVC1we5ggvun-5" value="" style="html=1;points=[];perimeter=orthogonalPerimeter;" vertex="1" parent="1">
          <mxGeometry x="175" y="168" width="10" height="152" as="geometry"/>
        </mxCell>
        <mxCell id="lP66GtSUZVC1we5ggvun-6" value="" style="endArrow=none;dashed=1;html=1;" edge="1" parent="1" target="lP66GtSUZVC1we5ggvun-5">
          <mxGeometry width="50" height="50" relative="1" as="geometry">
            <mxPoint x="180" y="600" as="sourcePoint"/>
            <mxPoint x="180" y="140" as="targetPoint"/>
          </mxGeometry>
        </mxCell>
        <mxCell id="lP66GtSUZVC1we5ggvun-7" value="" style="html=1;points=[];perimeter=orthogonalPerimeter;" vertex="1" parent="1">
          <mxGeometry x="175" y="370" width="10" height="140" as="geometry"/>
        </mxCell>
        <mxCell id="lP66GtSUZVC1we5ggvun-8" value="EditProfile(Data)" style="text;align=center;fontStyle=1;verticalAlign=middle;spacingLeft=3;spacingRight=3;strokeColor=none;rotatable=0;points=[[0,0.5],[1,0.5]];portConstraint=eastwest;" vertex="1" parent="1">
          <mxGeometry x="456" y="400" width="80" height="26" as="geometry"/>
        </mxCell>
      </root>
    </mxGraphModel>
  </diagram>
</mxfile>
